SplineFontDB: 3.2
FontName: Icon
FullName: Icon
FamilyName: Icon
Weight: Regular
Copyright: Copyright (c) 2018 Unrud <unrud@outlook.com>
UComments: "2018-8-29: Created with FontForge (http://fontforge.org)"
Version: 001.000
ItalicAngle: 0
UnderlinePosition: -102.4
UnderlineWidth: 51.2
Ascent: 819
Descent: 205
InvalidEm: 0
LayerCount: 2
Layer: 0 0 "Back" 1
Layer: 1 0 "Zeichen" 0
XUID: [1021 32 396054688 5708680]
FSType: 0
OS2Version: 0
OS2_WeightWidthSlopeOnly: 0
OS2_UseTypoMetrics: 1
CreationTime: 1535548659
ModificationTime: 1643323396
PfmFamily: 17
TTFWeight: 400
TTFWidth: 5
LineGap: 92
VLineGap: 0
OS2TypoAscent: 0
OS2TypoAOffset: 1
OS2TypoDescent: 0
OS2TypoDOffset: 1
OS2TypoLinegap: 92
OS2WinAscent: 0
OS2WinAOffset: 1
OS2WinDescent: 0
OS2WinDOffset: 1
HheadAscent: 0
HheadAOffset: 1
HheadDescent: 0
HheadDOffset: 1
OS2Vendor: 'PfEd'
MarkAttachClasses: 1
DEI: 91125
LangName: 1033
Encoding: UnicodeFull
Compacted: 1
UnicodeInterp: none
NameList: AGL For New Fonts
DisplaySize: -48
AntiAlias: 1
FitToEm: 0
WinInfo: 0 35 12
BeginPrivate: 0
EndPrivate
TeXData: 1 0 0 346030 173015 115343 0 1048576 115343 783286 444596 497025 792723 393216 433062 380633 303038 157286 324010 404750 52429 2506097 1059062 262144
BeginChars: 1114112 25

StartChar: uni2328
Encoding: 9000 9000 0
Width: 1024
VWidth: 0
Flags: W
HStem: 10 82<256 768> 205 61<292 404 456 568 620 732> 379 51<128 241 292 404 456 568 620 732 783 896> 543 61<128 241 292 404 456 568 620 732 783 896>
VStem: 20 108<266 379 430 543> 241 51<266 379 430 543> 404 52<266 379 430 543> 568 52<266 379 430 543> 732 51<266 379 430 543> 768 236<92 205> 896 108<266 379 430 543>
LayerCount: 2
Fore
SplineSet
72 604 m 2xff20
 952 604 l 2
 981 604 1004 582 1004 553 c 2
 1004 61 l 2
 1004 32 981 10 952 10 c 2
 72 10 l 2
 43 10 20 32 20 61 c 2
 20 553 l 2
 20 582 43 604 72 604 c 2xff20
138 543 m 2
 132 543 128 538 128 532 c 2
 128 440 l 2
 128 434 132 430 138 430 c 2
 230 430 l 2
 236 430 241 434 241 440 c 2
 241 532 l 2
 241 538 236 543 230 543 c 2
 138 543 l 2
302 543 m 2
 296 543 292 538 292 532 c 2
 292 440 l 2
 292 434 296 430 302 430 c 2
 394 430 l 2
 400 430 404 434 404 440 c 2
 404 532 l 2
 404 538 400 543 394 543 c 2
 302 543 l 2
466 543 m 2
 460 543 456 538 456 532 c 2
 456 440 l 2
 456 434 460 430 466 430 c 2
 558 430 l 2
 564 430 568 434 568 440 c 2
 568 532 l 2
 568 538 564 543 558 543 c 2
 466 543 l 2
630 543 m 2
 624 543 620 538 620 532 c 2
 620 440 l 2
 620 434 624 430 630 430 c 2
 722 430 l 2
 728 430 732 434 732 440 c 2
 732 532 l 2xff80
 732 538 728 543 722 543 c 2
 630 543 l 2
794 543 m 2
 788 543 783 538 783 532 c 2
 783 440 l 2
 783 434 788 430 794 430 c 2
 886 430 l 2
 892 430 896 434 896 440 c 2
 896 532 l 2xffa0
 896 538 892 543 886 543 c 2
 794 543 l 2
138 379 m 2
 132 379 128 375 128 369 c 2
 128 276 l 2
 128 270 132 266 138 266 c 2
 230 266 l 2
 236 266 241 270 241 276 c 2
 241 369 l 2
 241 375 236 379 230 379 c 2
 138 379 l 2
302 379 m 2
 296 379 292 375 292 369 c 2
 292 276 l 2
 292 270 296 266 302 266 c 2
 394 266 l 2
 400 266 404 270 404 276 c 2
 404 369 l 2
 404 375 400 379 394 379 c 2
 302 379 l 2
466 379 m 2
 460 379 456 375 456 369 c 2
 456 276 l 2
 456 270 460 266 466 266 c 2
 558 266 l 2
 564 266 568 270 568 276 c 2
 568 369 l 2
 568 375 564 379 558 379 c 2
 466 379 l 2
630 379 m 2
 624 379 620 375 620 369 c 2
 620 276 l 2
 620 270 624 266 630 266 c 2
 722 266 l 2
 728 266 732 270 732 276 c 2
 732 369 l 2
 732 375 728 379 722 379 c 2
 630 379 l 2
794 379 m 2
 788 379 783 375 783 369 c 2
 783 276 l 2
 783 270 788 266 794 266 c 2
 886 266 l 2
 892 266 896 270 896 276 c 2
 896 369 l 2
 896 375 892 379 886 379 c 2
 794 379 l 2
266 205 m 2
 260 205 256 201 256 195 c 2
 256 102 l 2
 256 96 260 92 266 92 c 2
 758 92 l 2
 764 92 768 96 768 102 c 2
 768 195 l 2xff40
 768 201 764 205 758 205 c 2
 266 205 l 2
EndSplineSet
EndChar

StartChar: uni2922
Encoding: 10530 10530 1
Width: 1024
VWidth: 0
Flags: W
HStem: -92 82<253 420> 625 82<604 771>
VStem: 113 82<48 215> 829 82<399 566>
LayerCount: 2
Fore
SplineSet
614 707 m 2
 901 707 l 2
 906 707 911 701 911 696 c 2
 911 410 l 2
 911 404 907 399 901 399 c 2
 840 399 l 2
 834 399 829 404 829 410 c 2
 829 566 l 1
 650 388 l 2
 646 384 640 384 636 388 c 2
 593 431 l 2
 589 435 589 441 593 445 c 2
 771 625 l 1
 614 625 l 2
 609 625 604 630 604 635 c 2
 604 696 l 2
 604 702 608 707 614 707 c 2
410 -92 m 2
 123 -92 l 2
 118 -92 113 -87 113 -82 c 2
 113 205 l 2
 113 211 117 215 123 215 c 2
 184 215 l 2
 190 215 195 211 195 205 c 2
 195 48 l 1
 374 226 l 2
 378 230 384 230 388 226 c 2
 431 183 l 2
 435 179 435 173 431 169 c 2
 253 -10 l 1
 410 -10 l 2
 415 -10 420 -15 420 -20 c 2
 420 -82 l 2
 420 -88 416 -92 410 -92 c 2
EndSplineSet
EndChar

StartChar: uni27A3
Encoding: 10147 10147 2
Width: 1024
VWidth: 0
Flags: W
LayerCount: 2
Fore
SplineSet
34 651 m 0
 35 651 l 0
 36 651 l 0
 37 651 l 0
 39 650 l 2
 993 342 l 2
 994 341 l 0
 995 341 l 0
 996 340 l 0
 997 340 l 0
 998 339 l 0
 999 338 l 0
 1000 337 l 0
 1001 336 l 0
 1001 334 l 0
 1002 333 l 0
 1002 332 l 0
 1004 330 l 0
 1004 329 l 0
 1004 328 l 2
 1004 327 l 0
 1004 321 998 314 993 312 c 2
 39 -36 l 2
 38 -37 35 -37 34 -37 c 0
 26 -37 18 -30 18 -22 c 0
 18 -20 19 -16 20 -14 c 2
 199 327 l 1
 199 328 l 1
 198 328 l 1
 20 628 l 2
 20 629 l 0
 19 630 l 0
 17 634 18 638 19 642 c 0
 20 643 l 0
 20 644 l 0
 22 645 l 0
 22 646 l 0
 24 649 29 651 33 651 c 0
 34 651 l 0
231 328 m 2
 231 327 l 0
 231 325 231 321 230 319 c 2
 66 6 l 1
 941 327 l 1
 937 328 l 1
 231 328 l 2
EndSplineSet
EndChar

StartChar: uni21BB
Encoding: 8635 8635 3
Width: 1024
VWidth: 0
Flags: W
HStem: -12 82<420.425 611.489> 545 82<415.37 602.162>
VStem: 193 81<210.457 396.738>
LayerCount: 2
Fore
SplineSet
499 627 m 0
 502 627 509 627 512 627 c 0
 615 627 741 554 791 464 c 1
 834 615 l 2
 836 620 841 623 846 622 c 2
 905 605 l 2
 910 603 914 598 912 593 c 2
 835 316 l 2
 834 311 827 308 822 309 c 2
 546 387 l 2
 541 388 537 394 539 399 c 2
 555 459 l 2
 557 464 563 467 568 466 c 2
 719 424 l 1
 681 491 589 545 512 545 c 0
 478 545 426 530 396 514 c 0
 329 476 274 384 274 307 c 0
 274 273 289 221 305 191 c 0
 343 124 435 70 512 70 c 0
 546 70 599 84 629 100 c 1
 669 29 l 1
 629 6 558 -12 512 -12 c 0
 409 -12 283 61 233 151 c 0
 210 191 193 261 193 307 c 0
 193 410 265 536 355 586 c 0
 392 606 457 625 499 627 c 0
EndSplineSet
EndChar

StartChar: u1F50A
Encoding: 128266 128266 4
Width: 1024
VWidth: 0
Flags: W
HStem: 144 342<20 269>
VStem: 20 492<144 486> 529 100<148.145 215.75 402.021 485.328> 552 107<170.891 440.716> 724 107<170.593 443.765> 896 108<172.375 441.418>
LayerCount: 2
Fore
SplineSet
497 650 m 0xcc
 505 650 512 643 512 635 c 2
 512 -20 l 2
 512 -33 497 -40 487 -32 c 2
 269 144 l 1
 36 144 l 2
 28 144 20 152 20 160 c 2
 20 471 l 2
 20 479 28 486 36 486 c 2
 290 486 l 1
 487 646 l 2
 490 648 494 650 497 650 c 0xcc
898 614 m 0
 903 614 908 612 911 608 c 0
 967 526 1001 427 1004 321 c 0
 1004 294 l 2
 1001 189 967 90 912 8 c 0
 908 2 901 0 894 3 c 2
 821 33 l 2
 812 37 809 47 815 55 c 0
 866 126 896 213 896 307 c 0
 896 403 864 490 812 562 c 0
 806 570 810 582 819 586 c 2
 893 613 l 2
 895 614 896 614 898 614 c 0
758 562 m 0
 764 562 768 559 771 554 c 0
 809 480 831 396 831 307 c 0
 831 221 810 140 774 67 c 0
 770 60 762 56 755 59 c 2
 684 89 l 2
 676 92 672 102 676 110 c 0
 707 169 724 235 724 307 c 0
 724 382 705 452 672 512 c 0
 668 520 671 531 680 534 c 2
 753 561 l 2
 755 562 756 562 758 562 c 0
610 507 m 0
 616 507 623 503 625 497 c 0
 648 438 659 374 659 307 c 0xdc
 659 245 648 185 629 129 c 0
 626 121 616 117 608 120 c 2
 538 148 l 2
 531 151 526 160 529 168 c 0xec
 544 212 552 258 552 307 c 0xdc
 552 360 541 412 524 459 c 0
 521 467 526 476 534 479 c 2
 605 506 l 2
 607 507 608 507 610 507 c 0
EndSplineSet
EndChar

StartChar: u1F509
Encoding: 128265 128265 5
Width: 1024
VWidth: 0
Flags: W
HStem: 144 342<20 269>
VStem: 20 492<144 486> 529 100<148.145 215.75 402.021 485.328> 552 107<170.891 440.716>
LayerCount: 2
Fore
SplineSet
497 650 m 0xc0
 505 650 512 643 512 635 c 2
 512 -20 l 2
 512 -33 497 -40 487 -32 c 2
 269 144 l 1
 36 144 l 2
 28 144 20 152 20 160 c 2
 20 471 l 2
 20 479 28 486 36 486 c 2
 290 486 l 1
 487 646 l 2
 490 648 494 650 497 650 c 0xc0
610 507 m 0
 616 507 623 503 625 497 c 0
 648 438 659 374 659 307 c 0xd0
 659 245 648 185 629 129 c 0
 626 121 616 117 608 120 c 2
 538 148 l 2
 531 151 526 160 529 168 c 0xe0
 544 212 552 258 552 307 c 0xd0
 552 360 541 412 524 459 c 0
 521 467 526 476 534 479 c 2
 605 506 l 2
 607 507 608 507 610 507 c 0
EndSplineSet
EndChar

StartChar: u1F507
Encoding: 128263 128263 6
Width: 1024
VWidth: 0
Flags: W
HStem: 144 342<20 269>
VStem: 20 492<144 486>
LayerCount: 2
Fore
SplineSet
497 650 m 0
 505 650 512 643 512 635 c 2
 512 -20 l 2
 512 -33 497 -40 487 -32 c 2
 269 144 l 1
 36 144 l 2
 28 144 20 152 20 160 c 2
 20 471 l 2
 20 479 28 486 36 486 c 2
 290 486 l 1
 487 646 l 2
 490 648 494 650 497 650 c 0
679 495 m 0
 683 495 687 493 690 490 c 2
 815 365 l 1
 941 490 l 2
 947 496 957 496 963 490 c 2
 998 455 l 2
 1004 449 1004 439 998 433 c 2
 873 307 l 1
 998 181 l 2
 1004 175 1004 166 998 160 c 2
 963 124 l 2
 957 118 947 118 941 124 c 2
 815 250 l 1
 690 124 l 2
 684 118 674 118 668 124 c 2
 632 160 l 2
 626 166 626 175 632 181 c 2
 758 307 l 1
 632 433 l 2
 626 439 626 449 632 455 c 2
 668 490 l 2
 671 493 675 495 679 495 c 0
EndSplineSet
EndChar

StartChar: uni23ED
Encoding: 9197 9197 7
Width: 1024
VWidth: 0
Flags: W
VStem: 840 164<-36 288 327 650>
LayerCount: 2
Fore
SplineSet
988 650 m 2
 996 650 1004 643 1004 635 c 2
 1004 -20 l 2
 1004 -28 996 -36 988 -36 c 2
 855 -36 l 2
 847 -36 840 -28 840 -20 c 2
 840 288 l 1
 455 -32 l 2
 445 -40 430 -33 430 -20 c 2
 430 288 l 1
 46 -32 l 2
 36 -40 20 -33 20 -20 c 2
 20 635 l 2
 20 643 29 650 37 650 c 0
 40 650 43 648 46 646 c 2
 430 327 l 1
 430 635 l 2
 430 643 437 650 445 650 c 0
 448 650 452 648 455 646 c 2
 840 327 l 1
 840 635 l 2
 840 643 847 650 855 650 c 2
 988 650 l 2
EndSplineSet
EndChar

StartChar: uni23EE
Encoding: 9198 9198 8
Width: 1024
VWidth: 0
Flags: W
VStem: 20 164<-36 288 327 650>
LayerCount: 2
Fore
SplineSet
36 650 m 2
 169 650 l 2
 177 650 184 643 184 635 c 2
 184 327 l 1
 569 646 l 2
 572 648 576 650 579 650 c 0
 587 650 594 643 594 635 c 2
 594 327 l 1
 978 646 l 2
 981 648 984 650 987 650 c 0
 995 650 1004 643 1004 635 c 2
 1004 -20 l 2
 1004 -33 988 -40 978 -32 c 2
 594 288 l 1
 594 -20 l 2
 594 -33 579 -40 569 -32 c 2
 184 288 l 1
 184 -20 l 2
 184 -28 177 -36 169 -36 c 2
 36 -36 l 2
 28 -36 20 -28 20 -20 c 2
 20 635 l 2
 20 643 28 650 36 650 c 2
EndSplineSet
EndChar

StartChar: uni23EF
Encoding: 9199 9199 9
Width: 1024
VWidth: 0
Flags: W
VStem: 561 164<-36 650> 840 164<-36 650>
LayerCount: 2
Fore
SplineSet
36 650 m 0
 40 650 43 648 46 646 c 2
 439 319 l 2
 446 313 446 301 439 295 c 2
 46 -32 l 2
 36 -40 20 -33 20 -20 c 2
 20 635 l 2
 20 643 28 650 36 650 c 0
577 650 m 2
 710 650 l 2
 718 650 725 643 725 635 c 2
 725 -20 l 2
 725 -28 718 -36 710 -36 c 2
 577 -36 l 2
 569 -36 561 -28 561 -20 c 2
 561 635 l 2
 561 643 569 650 577 650 c 2
855 650 m 2
 988 650 l 2
 996 650 1004 643 1004 635 c 2
 1004 -20 l 2
 1004 -28 996 -36 988 -36 c 2
 855 -36 l 2
 847 -36 840 -28 840 -20 c 2
 840 635 l 2
 840 643 847 650 855 650 c 2
EndSplineSet
EndChar

StartChar: uni2B60
Encoding: 11104 11104 10
Width: 1024
Flags: W
HStem: 225 164<445 1004>
LayerCount: 2
Fore
SplineSet
430 650 m 0
 438 650 445 643 445 635 c 2
 445 404 l 2
 445 396 453 389 461 389 c 2
 988 389 l 2
 996 389 1004 382 1004 374 c 2
 1004 241 l 2
 1004 233 996 225 988 225 c 2
 461 225 l 2
 453 225 445 218 445 210 c 2
 445 -20 l 2
 445 -33 430 -40 420 -32 c 2
 26 295 l 2
 19 301 19 313 26 319 c 2
 420 646 l 2
 423 648 426 650 430 650 c 0
EndSplineSet
EndChar

StartChar: uni2B62
Encoding: 11106 11106 11
Width: 1024
Flags: W
HStem: 225 164<20 579>
LayerCount: 2
Fore
SplineSet
594 650 m 0
 598 650 601 648 604 646 c 2
 997 319 l 2
 1004 313 1004 301 997 295 c 2
 604 -32 l 2
 594 -40 579 -33 579 -20 c 2
 579 210 l 2
 579 218 571 225 563 225 c 2
 36 225 l 2
 28 225 20 233 20 241 c 2
 20 374 l 2
 20 382 28 389 36 389 c 2
 563 389 l 2
 571 389 579 396 579 404 c 2
 579 635 l 2
 579 643 586 650 594 650 c 0
EndSplineSet
EndChar

StartChar: u1FA9F
Encoding: 129695 129695 12
Width: 1024
Flags: W
HStem: -184 450<20 471 553 1004> 348 451<20 471 553 1004>
VStem: 20 451<-184 266 348 799> 553 451<-184 266 348 799>
LayerCount: 2
Fore
SplineSet
560 266 m 2
 996 266 l 2
 1000 266 1004 263 1004 259 c 2
 1004 -177 l 2
 1004 -181 1000 -184 996 -184 c 2
 560 -184 l 2
 556 -184 553 -181 553 -177 c 2
 553 259 l 2
 553 263 556 266 560 266 c 2
28 266 m 2
 464 266 l 2
 468 266 471 263 471 259 c 2
 471 -177 l 2
 471 -181 468 -184 464 -184 c 2
 28 -184 l 2
 24 -184 20 -181 20 -177 c 2
 20 259 l 2
 20 263 24 266 28 266 c 2
560 799 m 2
 996 799 l 2
 1000 799 1004 796 1004 792 c 2
 1004 355 l 2
 1004 351 1000 348 996 348 c 2
 560 348 l 2
 556 348 553 351 553 355 c 2
 553 792 l 2
 553 796 556 799 560 799 c 2
28 799 m 2
 464 799 l 2
 468 799 471 796 471 792 c 2
 471 355 l 2
 471 351 468 348 464 348 c 2
 28 348 l 2
 24 348 20 351 20 355 c 2
 20 792 l 2
 20 796 24 799 28 799 c 2
EndSplineSet
EndChar

StartChar: equivalence
Encoding: 8801 8801 13
Width: 1024
Flags: W
HStem: 47 83<169 855> 266 82<169 855> 484 83<169 855>
CounterMasks: 1 e0
LayerCount: 2
Fore
SplineSet
855 333 m 2
 855 282 l 2
 855 274 848 266 840 266 c 2
 184 266 l 2
 176 266 169 274 169 282 c 2
 169 333 l 2
 169 341 176 348 184 348 c 2
 840 348 l 2
 848 348 855 341 855 333 c 2
855 115 m 2
 855 62 l 2
 855 54 848 47 840 47 c 2
 184 47 l 2
 176 47 169 54 169 62 c 2
 169 115 l 2
 169 123 176 130 184 130 c 2
 840 130 l 2
 848 130 855 123 855 115 c 2
855 552 m 2
 855 500 l 2
 855 492 848 484 840 484 c 2
 184 484 l 2
 176 484 169 492 169 500 c 2
 169 552 l 2
 169 560 176 567 184 567 c 2
 840 567 l 2
 848 567 855 560 855 552 c 2
EndSplineSet
EndChar

StartChar: uni2B70
Encoding: 11120 11120 14
Width: 1024
Flags: W
HStem: 225 164<594 1004>
VStem: 20 164<-36 288 327 650>
LayerCount: 2
Fore
SplineSet
36 650 m 2
 169 650 l 2
 177 650 184 643 184 635 c 2
 184 327 l 1
 569 646 l 2
 572 648 576 650 579 650 c 0
 587 650 594 643 594 635 c 2
 594 404 l 2
 594 396 601 389 609 389 c 2
 988 389 l 2
 996 389 1004 382 1004 374 c 2
 1004 241 l 2
 1004 233 996 225 988 225 c 2
 609 225 l 2
 601 225 594 218 594 210 c 2
 594 -20 l 2
 594 -33 579 -40 569 -32 c 2
 184 288 l 1
 184 -20 l 2
 184 -28 177 -36 169 -36 c 2
 36 -36 l 2
 28 -36 20 -28 20 -20 c 2
 20 635 l 2
 20 643 28 650 36 650 c 2
EndSplineSet
EndChar

StartChar: uni2B72
Encoding: 11122 11122 15
Width: 1024
Flags: W
HStem: 225 164<20 430>
VStem: 840 164<-36 288 327 650>
LayerCount: 2
Fore
SplineSet
988 650 m 2
 996 650 1004 643 1004 635 c 2
 1004 -20 l 2
 1004 -28 996 -36 988 -36 c 2
 855 -36 l 2
 847 -36 840 -28 840 -20 c 2
 840 288 l 1
 455 -32 l 2
 445 -40 430 -33 430 -20 c 2
 430 210 l 2
 430 218 423 225 415 225 c 2
 36 225 l 2
 28 225 20 233 20 241 c 2
 20 374 l 2
 20 382 28 389 36 389 c 2
 415 389 l 2
 423 389 430 396 430 404 c 2
 430 635 l 2
 430 643 437 650 445 650 c 0
 448 650 452 648 455 646 c 2
 840 327 l 1
 840 635 l 2
 840 643 847 650 855 650 c 2
 988 650 l 2
EndSplineSet
EndChar

StartChar: uni232B
Encoding: 9003 9003 16
Width: 1024
Flags: W
HStem: 495 155<546 601.75 822.25 877>
LayerCount: 2
Fore
SplineSet
430 650 m 2
 988 650 l 2
 996 650 1004 643 1004 635 c 2
 1004 374 l 1
 1004 241 l 1
 1004 -20 l 2
 1004 -28 996 -36 988 -36 c 2
 430 -36 l 2
 427 -36 423 -34 420 -32 c 2
 26 295 l 2
 19 301 19 313 26 319 c 2
 420 646 l 2
 423 648 426 650 430 650 c 2
848 495 m 0
 844 495 841 493 838 490 c 2
 712 365 l 1
 586 490 l 2
 583 493 579 495 575 495 c 0
 571 495 567 493 564 490 c 2
 528 455 l 2
 522 449 522 439 528 433 c 2
 654 307 l 1
 528 181 l 2
 522 175 522 166 528 160 c 2
 564 124 l 2
 570 118 580 118 586 124 c 2
 712 250 l 1
 838 124 l 2
 844 118 853 118 859 124 c 2
 895 160 l 2
 901 166 901 175 895 181 c 2
 769 307 l 1
 895 433 l 2
 901 439 901 449 895 455 c 2
 859 490 l 2
 856 493 852 495 848 495 c 0
EndSplineSet
EndChar

StartChar: uni2326
Encoding: 8998 8998 17
Width: 1024
Flags: W
HStem: 495 155<147 201.75 421.375 478>
LayerCount: 2
Fore
SplineSet
594 650 m 2
 598 650 601 648 604 646 c 2
 997 319 l 2
 1004 313 1004 301 997 295 c 2
 604 -32 l 2
 601 -34 597 -36 594 -36 c 2
 36 -36 l 2
 28 -36 20 -28 20 -20 c 2
 20 241 l 1
 20 374 l 1
 20 635 l 2
 20 643 28 650 36 650 c 2
 594 650 l 2
176 495 m 0
 172 495 168 493 165 490 c 2
 129 455 l 2
 123 449 123 439 129 433 c 2
 255 307 l 1
 129 181 l 2
 123 175 123 166 129 160 c 2
 165 124 l 2
 171 118 180 118 186 124 c 2
 312 250 l 1
 437 124 l 2
 443 118 454 118 460 124 c 2
 496 160 l 2
 502 166 502 175 496 181 c 2
 370 307 l 1
 496 433 l 2
 502 439 502 449 496 455 c 2
 460 490 l 2
 457 493 453 495 449 495 c 0
 445 495 440 493 437 490 c 2
 312 365 l 1
 186 490 l 2
 183 493 180 495 176 495 c 0
EndSplineSet
EndChar

StartChar: arrowleft
Encoding: 8592 8592 18
Width: 1024
Flags: W
HStem: 225 164<445 1004>
LayerCount: 2
Fore
SplineSet
430 650 m 0
 438 650 445 643 445 635 c 2
 445 404 l 2
 445 396 453 389 461 389 c 2
 988 389 l 2
 996 389 1004 382 1004 374 c 2
 1004 241 l 2
 1004 233 996 225 988 225 c 2
 461 225 l 2
 453 225 445 218 445 210 c 2
 445 -20 l 2
 445 -33 430 -40 420 -32 c 2
 26 295 l 2
 19 301 19 313 26 319 c 2
 420 646 l 2
 423 648 426 650 430 650 c 0
EndSplineSet
EndChar

StartChar: arrowup
Encoding: 8593 8593 19
Width: 1024
Flags: W
VStem: 430 164<-184 374>
LayerCount: 2
Fore
SplineSet
855 389 m 0
 855 381 848 374 840 374 c 2
 609 374 l 2
 601 374 594 366 594 358 c 2
 594 -169 l 2
 594 -177 587 -184 579 -184 c 2
 445 -184 l 2
 437 -184 430 -177 430 -169 c 2
 430 358 l 2
 430 366 423 374 415 374 c 2
 184 374 l 2
 171 374 165 389 173 399 c 2
 500 793 l 2
 506 800 518 800 524 793 c 2
 851 399 l 2
 853 396 855 393 855 389 c 0
EndSplineSet
EndChar

StartChar: arrowright
Encoding: 8594 8594 20
Width: 1024
Flags: W
HStem: 225 164<20 579>
LayerCount: 2
Fore
SplineSet
594 650 m 0
 598 650 601 648 604 646 c 2
 997 319 l 2
 1004 313 1004 301 997 295 c 2
 604 -32 l 2
 594 -40 579 -33 579 -20 c 2
 579 210 l 2
 579 218 571 225 563 225 c 2
 36 225 l 2
 28 225 20 233 20 241 c 2
 20 374 l 2
 20 382 28 389 36 389 c 2
 563 389 l 2
 571 389 579 396 579 404 c 2
 579 635 l 2
 579 643 586 650 594 650 c 0
EndSplineSet
EndChar

StartChar: arrowdown
Encoding: 8595 8595 21
Width: 1024
Flags: W
VStem: 430 164<241 799>
LayerCount: 2
Fore
SplineSet
169 225 m 0
 169 233 176 241 184 241 c 2
 415 241 l 2
 423 241 430 248 430 256 c 2
 430 783 l 2
 430 791 437 799 445 799 c 2
 579 799 l 2
 587 799 594 791 594 783 c 2
 594 256 l 2
 594 248 601 241 609 241 c 2
 840 241 l 2
 853 241 859 225 851 215 c 2
 524 -178 l 2
 518 -185 506 -185 500 -178 c 2
 172 215 l 2
 170 218 169 221 169 225 c 0
EndSplineSet
EndChar

StartChar: uni2B82
Encoding: 11138 11138 22
Width: 1024
Flags: W
HStem: 85 164<364 620 854 1004> 366 163<20 660>
LayerCount: 2
Fore
SplineSet
676 750 m 0
 680 750 683 748 686 746 c 2
 997 460 l 2
 1004 454 1004 442 997 436 c 2
 686 150 l 2
 676 142 660 149 660 162 c 2
 660 350 l 2
 660 358 653 366 645 366 c 2
 36 366 l 2
 28 366 20 373 20 381 c 2
 20 514 l 2
 20 522 28 529 36 529 c 2
 645 529 l 2
 653 529 660 537 660 545 c 2
 660 734 l 2
 660 742 668 750 676 750 c 0
185 325 m 1
 244 325 305 325 364 325 c 1
 364 264 l 2
 364 256 371 249 379 249 c 2
 620 249 l 1
 620 217 620 184 621 152 c 0
 625 124 652 103 680 105 c 0
 693 106 706 113 716 122 c 0
 736 140 756 159 776 177 c 0
 802 201 828 225 854 249 c 1
 988 249 l 2
 996 249 1004 241 1004 233 c 2
 1004 100 l 2
 1004 92 996 85 988 85 c 2
 379 85 l 2
 371 85 364 78 364 70 c 2
 364 -120 l 2
 364 -133 348 -140 338 -132 c 2
 26 155 l 2
 19 161 19 172 26 178 c 2
 185 325 l 1
EndSplineSet
EndChar

StartChar: uni2BA0
Encoding: 11168 11168 23
Width: 1024
HStem: 225 164<445 840>
VStem: 840 164<389 799>
LayerCount: 2
Fore
SplineSet
855 799 m 2
 988 799 l 2
 996 799 1004 791 1004 783 c 2
 1004 240 l 2
 1004 232 996 225 988 225 c 2
 461 225 l 2
 453 225 445 218 445 210 c 2
 445 -20 l 2
 445 -33 430 -40 420 -32 c 2
 26 295 l 2
 18 301 18 313 26 319 c 2
 420 646 l 2
 423 648 426 650 430 650 c 0
 438 650 445 642 445 634 c 2
 445 404 l 2
 445 396 453 389 461 389 c 2
 824 389 l 2
 832 389 840 396 840 404 c 2
 840 783 l 2
 840 791 847 799 855 799 c 2
EndSplineSet
EndChar

StartChar: uni2BC7
Encoding: 11207 11207 24
Width: 1024
LayerCount: 2
Fore
SplineSet
793 -34 m 2
 215 294 l 2
 210 297 208 301 208 307 c 0
 208 313 210 317 215 320 c 2
 793 648 l 2
 798 651 804 651 809 648 c 0
 814 645 816 639 816 634 c 2
 816 -20 l 2
 816 -25 814 -31 809 -34 c 0
 804 -37 798 -37 793 -34 c 2
EndSplineSet
EndChar
